#!OML:ASF F:\VICON\USERDATA\INSTALL\rory3\rory3.ASF
:FULLY-SPECIFIED
:DEGREES
442
root 3.8397 16.5293 0.298949 13.0418 0.767364 2.67949
lowerback 3.98388 -0.000878467 4.68752
upperback 2.09 0.143788 -3.46247
thorax -0.054468 0.125493 -6.2425
lowerneck -7.14525 6.34951 1.39048
upperneck 52.961 9.51699 2.30686
head 24.4308 4.0391 3.01753
rclavicle -3.97569e-016 -2.78299e-015
rhumerus -40.5364 20.5561 -97.9275
rradius 98.7241
rwrist -53.3616
rhand 1.3925 -43.329
rfingers 7.12502
rthumb 26.9235 -71.4313
lclavicle -3.97569e-016 -2.78299e-015
lhumerus -11.8347 -16.4707 79.6426
lradius 96.2526
lwrist 68.0255
lhand -20.9173 -21.7988
lfingers 7.12502
lthumb 5.45419 8.11104
rfemur -60.0141 6.28216 14.8173
rtibia 80.7658
rfoot 14.3974 -2.15495
rtoes -23.9613
lfemur -35.0626 -5.74876 -30.853
ltibia 47.2578
lfoot -21.4028 18.0952
ltoes 8.59692
443
root 3.84229 16.5371 0.321397 13.0671 0.887232 2.6414
lowerback 3.48921 0.0067427 4.92084
upperback 2.26571 0.143864 -3.45749
thorax 0.405885 0.147094 -6.36883
lowerneck -7.17484 6.35198 1.34675
upperneck 52.9315 9.52715 2.32019
head 24.4015 4.03784 3.03447
rclavicle -2.88238e-015 3.18055e-015
rhumerus -40.5222 20.6081 -98.2304
rradius 98.418
rwrist -53.433
rhand 1.6661 -44.1795
rfingers 7.12502
rthumb 27.1852 -72.241
lclavicle -2.88238e-015 3.18055e-015
lhumerus -11.9643 -16.9283 79.7837
lradius 96.1851
lwrist 68.5479
lhand -20.9397 -22.0151
lfingers 7.12502
lthumb 5.4326 7.89526
rfemur -59.8137 6.01712 14.9684
rtibia 80.7551
rfoot 14.207 -2.2389
rtoes -23.8289
lfemur -34.8909 -5.8271 -30.8343
ltibia 47.1626
lfoot -21.4251 18.166
ltoes 8.66345
444
root 3.84143 16.5452 0.332701 13.0898 1.00808 2.64855
lowerback 3.2772 0.00520073 5.07982
upperback 2.3043 0.137956 -3.45804
thorax 0.56491 0.152226 -6.45993
lowerneck -7.02133 6.34688 1.44473
upperneck 52.9444 9.56786 2.17178
head 24.3855 4.06307 2.93097
rclavicle -5.26779e-015 -2.18663e-015
rhumerus -40.6765 20.6141 -98.5338
rradius 98.2034
rwrist -53.7297
rhand 0.791396 -41.7614
rfingers 7.12502
rthumb 26.3482 -69.951
lclavicle -5.26779e-015 -2.18663e-015
lhumerus -12.3937 -17.3003 80.0046
lradius 96.1635
lwrist 68.8132
lhand -21.2986 -22.2623
lfingers 7.12502
lthumb 5.08607 7.6567
rfemur -59.7119 5.80814 15.0661
rtibia 80.7422
rfoot 14.2461 -2.3749
rtoes -23.4587
lfemur -34.796 -5.92029 -30.8241
ltibia 47.1047
lfoot -21.4905 18.1608
ltoes 8.77955
445
root 3.83368 16.5383 0.332225 13.0883 1.0612 2.76025
lowerback 3.46661 -0.0168713 5.02476
upperback 2.19962 0.11433 -3.46851
thorax 0.346497 0.129686 -6.43942
lowerneck -6.83991 6.38073 1.32287
upperneck 53.0357 9.59064 2.33273
head 24.363 4.06727 3.04303
rclavicle -2.5842e-015 -4.57205e-015
rhumerus -41.0353 20.6888 -98.9433
rradius 97.9607
rwrist -53.8585
rhand 0.195413 -40.8295
rfingers 7.12502
rthumb 25.7775 -69.1033
lclavicle -2.5842e-015 -4.57205e-015
lhumerus -13.4732 -17.236 80.4505
lradius 96.333
lwrist 68.7468
lhand -20.9305 -22.2498
lfingers 7.12502
lthumb 5.44142 7.66031
rfemur -59.7787 5.68939 15.0596
rtibia 80.7982
rfoot 14.4554 -2.34814
rtoes -23.0956
lfemur -34.8296 -5.94182 -30.9066
ltibia 47.1168
lfoot -21.5314 18.1121
ltoes 8.84132
446
root 3.82668 16.5287 0.329196 13.0412 1.07471 2.81362
lowerback 3.66024 -0.0262404 4.99523
upperback 2.15058 0.108395 -3.4454
thorax 0.186104 0.119629 -6.39861
lowerneck -6.70326 6.42117 1.31867
upperneck 53.1772 9.68024 2.33006
head 24.4626 4.09635 3.06556
rclavicle 1.17283e-014 -1.19271e-015
rhumerus -41.2825 20.7503 -99.2852
rradius 97.644
rwrist -53.7312
rhand 0.0742701 -40.1888
rfingers 7.12502
rthumb 25.6615 -68.4793
lclavicle 1.17283e-014 -1.19271e-015
lhumerus -13.3121 -17.8423 80.5245
lradius 95.9801
lwrist 69.2873
lhand -20.9251 -22.4427
lfingers 7.12502
lthumb 5.44664 7.46733
rfemur -59.8128 5.63383 15.1086
rtibia 80.8467
rfoot 14.6045 -2.29879
rtoes -23.5672
lfemur -34.8573 -5.94003 -30.9449
ltibia 47.161
lfoot -21.443 18.155
ltoes 8.68029
447
root 3.82358 16.5305 0.328442 12.9855 1.09452 2.78786
lowerback 3.611 0.0404601 5.09593
upperback 2.26089 0.198669 -3.41896
thorax 0.341969 0.174003 -6.43124
lowerneck -6.77973 6.39165 1.46783
upperneck 53.3786 9.70146 2.18382
head 24.784 4.10482 2.99377
rclavicle -1.20265e-014 0
rhumerus -41.2544 20.5533 -99.4006
rradius 97.4507
rwrist -53.5366
rhand -0.138241 -37.4424
rfingers 7.12502
rthumb 25.458 -65.7621
lclavicle -1.20265e-014 0
lhumerus -13.5685 -18.2849 80.8203
lradius 95.9787
lwrist 69.9084
lhand -21.1754 -22.2908
lfingers 7.12502
lthumb 5.20501 7.62523
rfemur -59.759 5.60253 15.2116
rtibia 80.8119
rfoot 14.68 -2.48849
rtoes -23.441
lfemur -34.8211 -5.97729 -30.9037
ltibia 47.181
lfoot -21.2911 18.2583
ltoes 8.3631
448
root 3.82222 16.5354 0.331594 12.9647 1.11814 2.77834
lowerback 3.47516 0.0769516 5.17862
upperback 2.39188 0.244256 -3.38881
thorax 0.561139 0.20861 -6.4474
lowerneck -6.83949 6.40077 1.47585
upperneck 53.4932 9.75444 2.15231
head 24.9572 4.11436 3.00557
rclavicle -8.15017e-015 -9.54166e-015
rhumerus -41.2379 20.51 -99.6138
rradius 97.1536
rwrist -53.5036
rhand 0.477331 -39.7985
rfingers 7.12502
rthumb 26.0475 -68.0328
lclavicle -8.15017e-015 -9.54166e-015
lhumerus -14.0081 -18.5095 81.1564
lradius 96.0913
lwrist 70.5456
lhand -21.5079 -22.0291
lfingers 7.12502
lthumb 4.88397 7.8946
rfemur -59.6996 5.57071 15.2634
rtibia 80.7486
rfoot 14.661 -2.74413
rtoes -22.174
lfemur -34.7944 -5.95725 -30.8973
ltibia 47.2015
lfoot -21.2606 18.2504
ltoes 8.25988
449
root 3.82126 16.5423 0.335012 12.9417 1.17805 2.76021
lowerback 3.49158 -0.0132655 5.23713
upperback 2.44055 0.12592 -3.30671
thorax 0.584536 0.151365 -6.39073
lowerneck -6.77843 6.52088 1.20371
upperneck 53.5276 9.95768 2.30271
head 24.8959 4.14894 3.17793
rclavicle 9.24349e-015 -2.28602e-014
rhumerus -41.2858 20.774 -99.8747
rradius 96.7673
rwrist -53.5031
rhand 1.6478 -42.5997
rfingers 7.12502
rthumb 27.1677 -70.6639
lclavicle 9.24349e-015 -2.28602e-014
lhumerus -14.3065 -18.6071 81.3469
lradius 96.0726
lwrist 71.1535
lhand -21.9005 -21.9163
lfingers 7.12502
lthumb 4.50481 8.01579
rfemur -59.6142 5.54759 15.3115
rtibia 80.6707
rfoot 14.6959 -2.97317
rtoes -21.0785
lfemur -34.7582 -5.95583 -30.873
ltibia 47.2304
lfoot -21.288 18.2243
ltoes 8.64941
450
root 3.81437 16.5411 0.329519 12.952 1.15469 2.5981
lowerback 3.66077 -0.0529174 5.33853
upperback 2.39867 0.0830368 -3.20046
thorax 0.440104 0.124097 -6.33595
lowerneck -6.7596 6.59256 0.668444
upperneck 53.5655 9.94458 2.86839
head 24.7461 4.09521 3.59215
rclavicle -5.66536e-015 -3.26007e-014
rhumerus -41.4364 20.9564 -100.154
rradius 96.4888
rwrist -53.614
rhand 2.31271 -44.014
rfingers 7.12502
rthumb 27.8036 -71.9773
lclavicle -5.66536e-015 -3.26007e-014
lhumerus -14.7418 -18.7666 81.5303
lradius 96.1244
lwrist 71.8836
lhand -22.0587 -21.6719
lfingers 7.12502
lthumb 4.35213 8.26337
rfemur -59.6614 5.72053 15.5027
rtibia 80.5954
rfoot 14.8912 -3.16199
rtoes -21.0526
lfemur -34.8774 -5.92715 -30.6567
ltibia 47.2887
lfoot -21.2132 18.2726
ltoes 8.89115
451
root 3.80572 16.5323 0.324306 12.9678 1.07858 2.43589
lowerback 3.71061 0.0206448 5.4302
upperback 2.34433 0.186259 -3.14186
thorax 0.371711 0.172605 -6.33032
lowerneck -6.52176 6.57118 0.58394
upperneck 53.522 9.84215 3.02179
head 24.5483 4.07326 3.64553
rclavicle -1.71452e-014 -3.57812e-015
rhumerus -41.7608 20.8131 -100.475
rradius 96.3633
rwrist -53.6935
rhand 1.74511 -42.815
rfingers 7.12502
rthumb 27.2608 -70.8647
lclavicle -1.71452e-014 -3.57812e-015
lhumerus -15.5363 -19.087 81.8448
lradius 96.3718
lwrist 72.4582
lhand -21.9995 -21.6794
lfingers 7.12502
lthumb 4.40922 8.2547
rfemur -59.7149 5.94476 15.6821
rtibia 80.5544
rfoot 14.871 -3.29601
rtoes -21.5834
lfemur -35.0409 -5.84757 -30.4527
ltibia 47.4052
lfoot -21.2264 18.3119
ltoes 8.91509
452
root 3.80269 16.5343 0.327095 12.9314 1.19964 2.54418
lowerback 3.68931 0.0696976 5.42699
upperback 2.31302 0.25084 -3.17653
thorax 0.361121 0.204034 -6.36721
lowerneck -6.09676 6.52213 1.03879
upperneck 53.4744 9.85671 2.55663
head 24.4483 4.14457 3.26369
rclavicle -7.05686e-015 3.37934e-014
rhumerus -42.0678 20.5273 -100.755
rradius 96.1875
rwrist -53.7537
rhand 0.6549 -39.7779
rfingers 7.12502
rthumb 26.2175 -67.987
lclavicle -7.05686e-015 3.37934e-014
lhumerus -16.4003 -19.5751 82.2242
lradius 96.6236
lwrist 72.743
lhand -22.0571 -21.607
lfingers 7.12502
lthumb 4.35368 8.32823
rfemur -59.5776 5.89468 15.5772
rtibia 80.5309
rfoot 14.6381 -3.46903
rtoes -21.2624
lfemur -34.9949 -6.03953 -30.5234
ltibia 47.4829
lfoot -21.378 18.3682
ltoes 9.24673
453
root 3.80287 16.5221 0.322646 13.1432 0.934555 2.71839
lowerback 3.65391 0.253451 5.33577
upperback 2.15666 0.492108 -3.25906
thorax 0.255067 0.31676 -6.41002
lowerneck -5.84088 6.44905 1.13281
upperneck 53.5435 9.72624 2.5502
head 24.4321 4.12536 3.20674
rclavicle 1.1281e-014 1.43125e-014
rhumerus -42.363 20.2503 -100.969
rradius 95.9941
rwrist -53.7641
rhand 0.248588 -40.7506
rfingers 7.12502
rthumb 25.8285 -69.0169
lclavicle 1.1281e-014 1.43125e-014
lhumerus -17.1278 -20.0777 82.618
lradius 96.7439
lwrist 73.0238
lhand -22.1413 -21.4845
lfingers 7.12502
lthumb 4.27231 8.45242
rfemur -59.9702 6.11063 15.2393
rtibia 80.6024
rfoot 14.6471 -3.47268
rtoes -20.3101
lfemur -35.3068 -5.90478 -30.7599
ltibia 47.5733
lfoot -21.4754 18.428
ltoes 9.66703
454
root 3.80043 16.5122 0.321496 13.2105 0.877342 2.84578
lowerback 3.73622 0.358211 5.30328
upperback 2.0086 0.634745 -3.29147
thorax 0.0770632 0.378059 -6.43199
lowerneck -5.58981 6.36551 0.925612
upperneck 53.6711 9.50079 2.87822
head 24.3889 4.04232 3.38093
rclavicle 1.08835e-014 -1.03368e-014
rhumerus -42.9032 19.9445 -101.216
rradius 95.9494
rwrist -53.6581
rhand -0.247722 -38.6911
rfingers 7.12502
rthumb 25.3531 -67.0258
lclavicle 1.08835e-014 -1.03368e-014
lhumerus -17.8296 -20.5502 83.0571
lradius 96.7526
lwrist 73.1289
lhand -22.2838 -21.6318
lfingers 7.12502
lthumb 4.13475 8.30785
rfemur -60.0991 6.21968 15.0365
rtibia 80.6565
rfoot 14.5463 -3.32977
rtoes -20.2494
lfemur -35.4005 -5.69915 -30.9344
ltibia 47.6022
lfoot -21.5803 18.2948
ltoes 10.2823
455
root 3.7997 16.5136 0.324497 13.2505 0.894915 2.92706
lowerback 3.92145 0.119107 5.14068
upperback 2.06626 0.318588 -3.10559
thorax -0.017811 0.215306 -6.13225
lowerneck -5.9262 6.63519 0.464307
upperneck 53.7497 10.1725 2.7187
head 24.5707 4.15689 3.53851
rclavicle -5.86415e-015 1.27222e-014
rhumerus -42.9161 20.8196 -101.36
rradius 95.7238
rwrist -53.7521
rhand -1.53849 -32.8737
rfingers 7.12502
rthumb 24.116 -61.378
lclavicle -5.86415e-015 1.27222e-014
lhumerus -17.9812 -20.094 83.2515
lradius 96.6263
lwrist 73.0735
lhand -22.4567 -21.6461
lfingers 7.12502
lthumb 3.96779 8.29668
rfemur -60.0517 6.27599 14.9071
rtibia 80.6404
rfoot 14.4254 -3.07663
rtoes -21.2778
lfemur -35.4163 -5.62923 -31.036
ltibia 47.6271
lfoot -21.6787 18.2289
ltoes 10.8271
456
root 3.79941 16.5156 0.327082 13.3502 0.906013 3.03729
lowerback 3.7687 0.300967 5.18958
upperback 1.96974 0.556231 -3.25449
thorax 0.00470892 0.333981 -6.32533
lowerneck -5.45586 6.50103 1.10234
upperneck 53.7698 9.93625 2.40122
head 24.5409 4.18785 3.16569
rclavicle 1.0461e-014 -6.75868e-015
rhumerus -43.1191 20.217 -101.625
rradius 95.4373
rwrist -53.7288
rhand -0.646392 -34.6612
rfingers 7.12502
rthumb 24.9711 -63.0494
lclavicle 1.0461e-014 -6.75868e-015
lhumerus -18.2961 -21.1594 83.4165
lradius 96.5364
lwrist 73.5194
lhand -22.5296 -21.4726
lfingers 7.12502
lthumb 3.89732 8.47148
rfemur -60.0448 6.32865 14.7299
rtibia 80.5972
rfoot 14.1959 -2.995
rtoes -21.9107
lfemur -35.5104 -5.63635 -31.158
ltibia 47.6536
lfoot -21.6248 18.2647
ltoes 10.6617
